# xmcd
# 
# Track frame offsets:
#     187
#     27522
#     48112
#     61755
#     83927
#     97620
#     109047
#     127735
#     158355
#     170335
#     185622
# 
# Disc length: 2784
# 
# Revision: 0
# Processed by: cddbd v1.5.2PL0 Copyright (c) Steve Scherf et al.
# Submitted via: fre:ac v1.0.31
# 
DISCID=740ade0b
DTITLE=岩代太郎 - 君といた夏 オリジナルサウンドトラック
DYEAR=0
DGENRE=Soundtrack
TTITLE0=Friends Forever ~Main Theme~
TTITLE1=Hello,my friend ~Baroque Version~
TTITLE2=Walts In The Night
TTITLE3=Our Days
TTITLE4=Go Away
TTITLE5=Friends Forever ~On 2 AcGuitars~
TTITLE6=Pieces Of A Dream
TTITLE7=Friends Forever ~Unplugged Version~
TTITLE8=Friends Forever ~Country Version~
TTITLE9=Our Days(Reprise)
TTITLE10=想い出にならない…~Main theme "Frends Forever" Vocal Version~
EXTD=
EXTT0=
EXTT1=
EXTT2=
EXTT3=
EXTT4=
EXTT5=
EXTT6=
EXTT7=
EXTT8=
EXTT9=
EXTT10=
PLAYORDER=
